<?xml version="1.0" encoding="iso-8859-1"?>
<!-- Generator: Adobe Illustrator 15.1.0, SVG Export Plug-In . SVG Version: 6.00 Build 0)  -->
<!DOCTYPE svg PUBLIC "-//W3C//DTD SVG 1.1//EN" "http://www.w3.org/Graphics/SVG/1.1/DTD/svg11.dtd">
<svg version="1.1" id="&#xB808;&#xC774;&#xC5B4;_1" xmlns="http://www.w3.org/2000/svg" xmlns:xlink="http://www.w3.org/1999/xlink"
	 x="0px" y="0px" width="48px" height="48px" viewBox="0 0 48 48" style="enable-background:new 0 0 48 48;" xml:space="preserve">
<circle style="fill:#4F5D73;" cx="24" cy="24" r="24"/>
<g>
	<g>
		<path style="fill:#464646;" d="M25.2,28.114l13.254-11.346c-0.207-0.139-0.484-0.243-0.762-0.243H12.71
			c-0.278,0-0.555,0.104-0.764,0.243L25.2,28.114z"/>
		<path style="fill:#464646;" d="M26.103,29.155c-0.521,0.45-1.283,0.45-1.804,0L11.322,18.087v14.399
			c0,0.764,0.625,1.388,1.388,1.388h24.982c0.762,0,1.387-0.624,1.387-1.388V18.052L26.103,29.155z"/>
	</g>
	<g>
		<g>
			<g>
				<path style="fill:#FFFFFF;" d="M24,26.914l13.253-11.346c-0.207-0.139-0.484-0.243-0.762-0.243H11.51
					c-0.278,0-0.555,0.104-0.764,0.243L24,26.914z"/>
			</g>
			<g>
				<path style="fill:#FFFFFF;" d="M24.903,27.955c-0.521,0.45-1.284,0.45-1.804,0L10.122,16.887v14.399
					c0,0.764,0.625,1.388,1.388,1.388h24.982c0.762,0,1.387-0.624,1.387-1.388V16.852L24.903,27.955z"/>
			</g>
		</g>
	</g>
</g>
</svg>
