<?xml version="1.0" encoding="utf-8"?>
<!-- Generator: Adobe Illustrator 15.1.0, SVG Export Plug-In . SVG Version: 6.00 Build 0)  -->
<!DOCTYPE svg PUBLIC "-//W3C//DTD SVG 1.1//EN" "http://www.w3.org/Graphics/SVG/1.1/DTD/svg11.dtd">
<svg version="1.1" id="레이어_1" xmlns="http://www.w3.org/2000/svg" xmlns:xlink="http://www.w3.org/1999/xlink" x="0px"
	 y="0px" width="48px" height="48px" viewBox="0 0 48 48" enable-background="new 0 0 48 48" xml:space="preserve">
<g id="Layer_1">
	<g>
		<circle fill="#77B3D4" cx="24" cy="24" r="24"/>
	</g>
	<g>
		<g opacity="0.2">
			<path fill="#231F20" d="M39,33c0,1.656-1.344,3-3,3H12c-1.657,0-3-1.344-3-3V18c0-1.657,1.343-3,3-3h24c1.656,0,3,1.343,3,3V33z"
				/>
		</g>
		<g>
			<path fill="#E0E0D1" d="M39,31.5c0,1.656-1.344,3-3,3H12c-1.657,0-3-1.344-3-3v-15c0-1.657,1.343-3,3-3h24c1.656,0,3,1.343,3,3
				V31.5z"/>
		</g>
		<g opacity="0.2">
			<g>
				<path fill="#231F20" d="M26.643,22.639c-1.453-1.609-3.83-1.609-5.285,0l-11.57,9.783c-0.135,0.148-0.246,0.294-0.346,0.438
					C9.968,33.84,10.912,34.5,12,34.5h24c1.088,0,2.032-0.66,2.559-1.641c-0.101-0.144-0.211-0.289-0.346-0.438L26.643,22.639z"/>
			</g>
		</g>
		<g>
			<g>
				<path fill="#E0E0D1" d="M26.643,24c-1.453-1.425-3.83-1.425-5.285,0l-11.57,8.659c-0.135,0.133-0.246,0.262-0.346,0.388
					C9.968,33.916,10.912,34.5,12,34.5h24c1.088,0,2.032-0.584,2.559-1.451c-0.101-0.128-0.211-0.257-0.346-0.389L26.643,24z"/>
			</g>
		</g>
		<g opacity="0.2">
			<g>
				<path fill="#231F20" d="M9.441,15.14c0.526-0.979,1.47-1.64,2.559-1.64h24c1.088,0,2.032,0.661,2.559,1.64
					c-0.101,0.143-0.211,0.289-0.346,0.439l-11.57,9.782c-1.453,1.609-3.83,1.609-5.285,0L9.441,15.14z"/>
			</g>
		</g>
		<g>
			<g>
				<path fill="#FFFFFF" d="M21.357,24c1.453,1.426,3.832,1.426,5.285,0l11.57-8.659c0.135-0.132,0.245-0.261,0.346-0.388
					C38.032,14.085,37.088,13.5,36,13.5H12c-1.088,0-2.032,0.585-2.559,1.452c0.1,0.126,0.211,0.255,0.346,0.388L21.357,24z"/>
			</g>
		</g>
	</g>
</g>
<g id="Layer_2">
</g>
</svg>
