<?xml version="1.0" encoding="utf-8"?>
<!-- Generator: Adobe Illustrator 15.1.0, SVG Export Plug-In . SVG Version: 6.00 Build 0)  -->
<!DOCTYPE svg PUBLIC "-//W3C//DTD SVG 1.1//EN" "http://www.w3.org/Graphics/SVG/1.1/DTD/svg11.dtd">
<svg version="1.1" id="레이어_1" xmlns="http://www.w3.org/2000/svg" xmlns:xlink="http://www.w3.org/1999/xlink" x="0px"
	 y="0px" width="48px" height="48px" viewBox="8 8 48 48" enable-background="new 8 8 48 48" xml:space="preserve">
<g>
	<circle fill="#FF3F54" cx="32" cy="32" r="24"/>
</g>
<g>
	<g opacity="0.2">
		<path fill="#231F20" d="M47,41c0,1.656-1.344,3-3,3H20c-1.657,0-3-1.344-3-3V26c0-1.657,1.343-3,3-3h24c1.656,0,3,1.343,3,3V41z"
			/>
	</g>
	<g>
		<path fill="#E0E0D1" d="M47,39.5c0,1.656-1.344,3-3,3H20c-1.657,0-3-1.344-3-3v-15c0-1.657,1.343-3,3-3h24c1.656,0,3,1.343,3,3
			V39.5z"/>
	</g>
	<g opacity="0.2">
		<g>
			<path fill="#231F20" d="M34.643,30.639c-1.453-1.609-3.831-1.609-5.285,0l-11.571,9.783c-0.135,0.148-0.246,0.294-0.346,0.438
				C17.968,41.84,18.912,42.5,20,42.5h24c1.088,0,2.032-0.66,2.559-1.641c-0.101-0.143-0.211-0.289-0.346-0.438L34.643,30.639z"/>
		</g>
	</g>
	<g>
		<g>
			<path fill="#E0E0D1" d="M34.643,32c-1.453-1.425-3.831-1.425-5.285,0l-11.571,8.659c-0.135,0.133-0.246,0.262-0.346,0.388
				C17.968,41.916,18.912,42.5,20,42.5h24c1.088,0,2.032-0.584,2.559-1.451c-0.101-0.128-0.211-0.257-0.346-0.389L34.643,32z"/>
		</g>
	</g>
	<g opacity="0.2">
		<g>
			<path fill="#231F20" d="M17.441,23.14c0.526-0.979,1.47-1.64,2.559-1.64h24c1.088,0,2.032,0.661,2.559,1.64
				c-0.101,0.143-0.211,0.289-0.346,0.439l-11.57,9.782c-1.453,1.609-3.831,1.609-5.285,0L17.441,23.14z"/>
		</g>
	</g>
	<g>
		<g>
			<path fill="#FFFFFF" d="M29.357,32c1.454,1.426,3.832,1.426,5.286,0l11.57-8.659c0.135-0.132,0.245-0.261,0.346-0.388
				C46.032,22.085,45.088,21.5,44,21.5H20c-1.088,0-2.032,0.585-2.559,1.452c0.1,0.126,0.211,0.255,0.346,0.388L29.357,32z"/>
		</g>
	</g>
</g>
<g id="Layer_2">
</g>
</svg>
