<?xml version="1.0" encoding="iso-8859-1"?>
<!-- Generator: Adobe Illustrator 15.1.0, SVG Export Plug-In . SVG Version: 6.00 Build 0)  -->
<!DOCTYPE svg PUBLIC "-//W3C//DTD SVG 1.1//EN" "http://www.w3.org/Graphics/SVG/1.1/DTD/svg11.dtd">
<svg version="1.1" id="&#xB808;&#xC774;&#xC5B4;_1" xmlns="http://www.w3.org/2000/svg" xmlns:xlink="http://www.w3.org/1999/xlink"
	 x="0px" y="0px" width="48px" height="48px" viewBox="0 0 48 48" style="enable-background:new 0 0 48 48;" xml:space="preserve">
<g>
	<circle style="fill:#4F5D73;" cx="24.169" cy="23.901" r="24"/>
	<g>
		<g>
			<path style="fill:#464646;" d="M25.369,28.016L38.623,16.67c-0.208-0.139-0.485-0.243-0.763-0.243H12.878
				c-0.278,0-0.555,0.104-0.764,0.243L25.369,28.016z"/>
			<path style="fill:#464646;" d="M26.271,29.057c-0.521,0.45-1.284,0.45-1.804,0L11.49,17.988v14.399
				c0,0.764,0.625,1.388,1.388,1.388H37.86c0.763,0,1.388-0.624,1.388-1.388V17.954L26.271,29.057z"/>
		</g>
		<g>
			<g>
				<g>
					<path style="fill:#FFFFFF;" d="M24.169,26.815L37.423,15.47c-0.208-0.139-0.485-0.243-0.763-0.243H11.678
						c-0.278,0-0.555,0.104-0.764,0.243L24.169,26.815z"/>
				</g>
				<g>
					<path style="fill:#FFFFFF;" d="M25.071,27.856c-0.521,0.45-1.284,0.45-1.804,0L10.29,16.788v14.399
						c0,0.764,0.625,1.388,1.388,1.388H36.66c0.763,0,1.388-0.624,1.388-1.388V16.753L25.071,27.856z"/>
				</g>
			</g>
		</g>
	</g>
	<circle style="fill:#FF0000;" cx="41.276" cy="6.353" r="5.382"/>
</g>
</svg>
